HIERARCHY
ROOT mixamorig:Hips
{
	OFFSET 0.000000 3.528733 0.000000
	CHANNELS 6 Xposition Yposition Zposition Xrotation Yrotation Zrotation
	JOINT mixamorig:Spine
	{
		OFFSET 0.000000 0.284700 -0.015200
		CHANNELS 3 Xrotation Yrotation Zrotation
		JOINT mixamorig:Spine1
		{
			OFFSET 0.000000 0.332125 -0.017771
			CHANNELS 3 Xrotation Yrotation Zrotation
			JOINT mixamorig:Spine2
			{
				OFFSET 0.000000 0.379557 -0.020309
				CHANNELS 3 Xrotation Yrotation Zrotation
				JOINT mixamorig:Neck
				{
					OFFSET 0.000000 0.426989 -0.022847
					CHANNELS 3 Xrotation Yrotation Zrotation
					JOINT mixamorig:Head
					{
						OFFSET 0.000000 0.288600 0.098000
						CHANNELS 3 Xrotation Yrotation Zrotation
						JOINT mixamorig:HeadTop_End
						{
							OFFSET 0.000000 0.712700 0.242000
							CHANNELS 3 Xrotation Yrotation Zrotation
							End Site
							{
								OFFSET 0.000000 0.752666 0.000000
							}
						}
					}
				}
				JOINT mixamorig:LeftShoulder
				{
					OFFSET 0.202600 0.346984 -0.022672
					CHANNELS 3 Xrotation Yrotation Zrotation
					JOINT mixamorig:LeftArm
					{
						OFFSET 0.427337 -0.109325 0.000307
						CHANNELS 3 Xrotation Yrotation Zrotation
						JOINT mixamorig:LeftForeArm
						{
							OFFSET 0.849600 0.000000 0.000000
							CHANNELS 3 Xrotation Yrotation Zrotation
							JOINT mixamorig:LeftHand
							{
								OFFSET 0.753900 0.000000 0.000000
								CHANNELS 3 Xrotation Yrotation Zrotation
								JOINT mixamorig:LeftHandThumb1
								{
									OFFSET 0.136012 -0.086473 0.045448
									CHANNELS 3 Xrotation Yrotation Zrotation
									JOINT mixamorig:LeftHandThumb2
									{
										OFFSET 0.103772 -0.059913 0.059913
										CHANNELS 3 Xrotation Yrotation Zrotation
										JOINT mixamorig:LeftHandThumb3
										{
											OFFSET 0.095779 -0.055298 0.055298
											CHANNELS 3 Xrotation Yrotation Zrotation
											JOINT mixamorig:LeftHandThumb4
											{
												OFFSET 0.073275 -0.042305 0.042305
												CHANNELS 3 Xrotation Yrotation Zrotation
												End Site
												{
													OFFSET 0.065698 -0.038445 0.056164
												}
											}
										}
									}
								}
								JOINT mixamorig:LeftHandIndex1
								{
									OFFSET 0.449965 -0.020370 0.085418
									CHANNELS 3 Xrotation Yrotation Zrotation
									JOINT mixamorig:LeftHandIndex2
									{
										OFFSET 0.102424 0.000000 -0.000000
										CHANNELS 3 Xrotation Yrotation Zrotation
										JOINT mixamorig:LeftHandIndex3
										{
											OFFSET 0.096306 0.000000 -0.000000
											CHANNELS 3 Xrotation Yrotation Zrotation
											JOINT mixamorig:LeftHandIndex4
											{
												OFFSET 0.078408 0.000000 -0.000000
												CHANNELS 3 Xrotation Yrotation Zrotation
												End Site
												{
													OFFSET 0.078400 -0.000010 -0.001100
												}
											}
										}
									}
								}
								JOINT mixamorig:LeftHandMiddle1
								{
									OFFSET 0.430485 0.000000 0.000000
									CHANNELS 3 Xrotation Yrotation Zrotation
									JOINT mixamorig:LeftHandMiddle2
									{
										OFFSET 0.112203 0.000000 0.000000
										CHANNELS 3 Xrotation Yrotation Zrotation
										JOINT mixamorig:LeftHandMiddle3
										{
											OFFSET 0.108209 0.000000 0.000000
											CHANNELS 3 Xrotation Yrotation Zrotation
											JOINT mixamorig:LeftHandMiddle4
											{
												OFFSET 0.087466 0.000000 0.000000
												CHANNELS 3 Xrotation Yrotation Zrotation
												End Site
												{
													OFFSET 0.087400 -0.000057 -0.003400
												}
											}
										}
									}
								}
								JOINT mixamorig:LeftHandRing1
								{
									OFFSET 0.364574 -0.002440 -0.092011
									CHANNELS 3 Xrotation Yrotation Zrotation
									JOINT mixamorig:LeftHandRing2
									{
										OFFSET 0.114832 0.000000 0.000000
										CHANNELS 3 Xrotation Yrotation Zrotation
										JOINT mixamorig:LeftHandRing3
										{
											OFFSET 0.104409 0.000000 0.000000
											CHANNELS 3 Xrotation Yrotation Zrotation
											JOINT mixamorig:LeftHandRing4
											{
												OFFSET 0.080424 0.000000 0.000000
												CHANNELS 3 Xrotation Yrotation Zrotation
												End Site
												{
													OFFSET 0.080200 -0.000053 -0.006000
												}
											}
										}
									}
								}
								JOINT mixamorig:LeftHandPinky1
								{
									OFFSET 0.312269 -0.016255 -0.171399
									CHANNELS 3 Xrotation Yrotation Zrotation
									JOINT mixamorig:LeftHandPinky2
									{
										OFFSET 0.087028 0.000000 0.000000
										CHANNELS 3 Xrotation Yrotation Zrotation
										JOINT mixamorig:LeftHandPinky3
										{
											OFFSET 0.073733 0.000000 0.000000
											CHANNELS 3 Xrotation Yrotation Zrotation
											JOINT mixamorig:LeftHandPinky4
											{
												OFFSET 0.056250 0.000000 0.000000
												CHANNELS 3 Xrotation Yrotation Zrotation
												End Site
												{
													OFFSET 0.056100 -0.000056 -0.004100
												}
											}
										}
									}
								}
							}
						}
					}
				}
				JOINT mixamorig:RightShoulder
				{
					OFFSET -0.202600 0.346968 -0.022971
					CHANNELS 3 Xrotation Yrotation Zrotation
					JOINT mixamorig:RightArm
					{
						OFFSET -0.427342 -0.109309 -0.000307
						CHANNELS 3 Xrotation Yrotation Zrotation
						JOINT mixamorig:RightForeArm
						{
							OFFSET -0.849600 0.000000 -0.000000
							CHANNELS 3 Xrotation Yrotation Zrotation
							JOINT mixamorig:RightHand
							{
								OFFSET -0.753900 0.000000 -0.000000
								CHANNELS 3 Xrotation Yrotation Zrotation
								JOINT mixamorig:RightHandThumb1
								{
									OFFSET -0.139217 -0.077736 0.046135
									CHANNELS 3 Xrotation Yrotation Zrotation
									JOINT mixamorig:RightHandThumb2
									{
										OFFSET -0.102889 -0.059403 0.059403
										CHANNELS 3 Xrotation Yrotation Zrotation
										JOINT mixamorig:RightHandThumb3
										{
											OFFSET -0.097122 -0.056073 0.056073
											CHANNELS 3 Xrotation Yrotation Zrotation
											JOINT mixamorig:RightHandThumb4
											{
												OFFSET -0.076714 -0.044291 0.044291
												CHANNELS 3 Xrotation Yrotation Zrotation
												End Site
												{
													OFFSET -0.072157 -0.042014 0.053259
												}
											}
										}
									}
								}
								JOINT mixamorig:RightHandIndex1
								{
									OFFSET -0.450325 -0.003448 0.076701
									CHANNELS 3 Xrotation Yrotation Zrotation
									JOINT mixamorig:RightHandIndex2
									{
										OFFSET -0.104343 0.000000 -0.000000
										CHANNELS 3 Xrotation Yrotation Zrotation
										JOINT mixamorig:RightHandIndex3
										{
											OFFSET -0.097003 0.000000 -0.000000
											CHANNELS 3 Xrotation Yrotation Zrotation
											JOINT mixamorig:RightHandIndex4
											{
												OFFSET -0.081630 0.000000 -0.000000
												CHANNELS 3 Xrotation Yrotation Zrotation
												End Site
												{
													OFFSET -0.081600 -0.000082 -0.002198
												}
											}
										}
									}
								}
								JOINT mixamorig:RightHandMiddle1
								{
									OFFSET -0.397234 0.000000 -0.000000
									CHANNELS 3 Xrotation Yrotation Zrotation
									JOINT mixamorig:RightHandMiddle2
									{
										OFFSET -0.115313 0.000000 -0.000000
										CHANNELS 3 Xrotation Yrotation Zrotation
										JOINT mixamorig:RightHandMiddle3
										{
											OFFSET -0.121324 0.000000 -0.000000
											CHANNELS 3 Xrotation Yrotation Zrotation
											JOINT mixamorig:RightHandMiddle4
											{
												OFFSET -0.103502 0.000000 0.000000
												CHANNELS 3 Xrotation Yrotation Zrotation
												End Site
												{
													OFFSET -0.103400 -0.000083 -0.004599
												}
											}
										}
									}
								}
								JOINT mixamorig:RightHandRing1
								{
									OFFSET -0.356229 0.006227 -0.097026
									CHANNELS 3 Xrotation Yrotation Zrotation
									JOINT mixamorig:RightHandRing2
									{
										OFFSET -0.116123 0.000000 0.000000
										CHANNELS 3 Xrotation Yrotation Zrotation
										JOINT mixamorig:RightHandRing3
										{
											OFFSET -0.105608 0.000000 0.000000
											CHANNELS 3 Xrotation Yrotation Zrotation
											JOINT mixamorig:RightHandRing4
											{
												OFFSET -0.089388 0.000000 0.000000
												CHANNELS 3 Xrotation Yrotation Zrotation
												End Site
												{
													OFFSET -0.089200 -0.000198 -0.005797
												}
											}
										}
									}
								}
								JOINT mixamorig:RightHandPinky1
								{
									OFFSET -0.319258 -0.005155 -0.189362
									CHANNELS 3 Xrotation Yrotation Zrotation
									JOINT mixamorig:RightHandPinky2
									{
										OFFSET -0.084919 0.000000 0.000000
										CHANNELS 3 Xrotation Yrotation Zrotation
										JOINT mixamorig:RightHandPinky3
										{
											OFFSET -0.068357 0.000000 0.000000
											CHANNELS 3 Xrotation Yrotation Zrotation
											JOINT mixamorig:RightHandPinky4
											{
												OFFSET -0.053427 0.000000 0.000000
												CHANNELS 3 Xrotation Yrotation Zrotation
												End Site
												{
													OFFSET -0.053400 -0.000117 -0.001696
												}
											}
										}
									}
								}
							}
						}
					}
				}
			}
		}
	}
	JOINT mixamorig:LeftUpLeg
	{
		OFFSET 0.302300 -0.158000 -0.006800
		CHANNELS 3 Xrotation Yrotation Zrotation
		JOINT mixamorig:LeftLeg
		{
			OFFSET -0.021195 -1.512800 -0.072827
			CHANNELS 3 Xrotation Yrotation Zrotation
			JOINT mixamorig:LeftFoot
			{
				OFFSET 0.021196 -1.499076 -0.232845
				CHANNELS 3 Xrotation Yrotation Zrotation
				JOINT mixamorig:LeftToeBase
				{
					OFFSET 0.176214 -0.335644 0.384848
					CHANNELS 3 Xrotation Yrotation Zrotation
					JOINT mixamorig:LeftToe_End
					{
						OFFSET 0.078950 -0.008059 0.195507
						CHANNELS 3 Xrotation Yrotation Zrotation
						End Site
						{
							OFFSET 0.078950 -0.008059 0.195507
						}
					}
				}
			}
		}
	}
	JOINT mixamorig:RightUpLeg
	{
		OFFSET -0.302300 -0.158000 -0.006600
		CHANNELS 3 Xrotation Yrotation Zrotation
		JOINT mixamorig:RightLeg
		{
			OFFSET 0.021196 -1.512831 -0.074247
			CHANNELS 3 Xrotation Yrotation Zrotation
			JOINT mixamorig:RightFoot
			{
				OFFSET -0.021196 -1.499093 -0.231430
				CHANNELS 3 Xrotation Yrotation Zrotation
				JOINT mixamorig:RightToeBase
				{
					OFFSET -0.176206 -0.335620 0.376547
					CHANNELS 3 Xrotation Yrotation Zrotation
					JOINT mixamorig:RightToe_End
					{
						OFFSET -0.078935 -0.008056 0.196268
						CHANNELS 3 Xrotation Yrotation Zrotation
						End Site
						{
							OFFSET -0.078935 -0.008056 0.196268
						}
					}
				}
			}
		}
	}
}
MOTION
Frames: 4
Frame Time: 0.033333
-0.045951 0.513045 0.577729 -1.773434 -0.189000 -3.424240 8.902514 0.492912 -0.774232 10.848773 1.490795 -0.571438 10.831261 1.620311 -0.686567 2.935071 -0.400257 3.480633 -22.846652 2.358524 -1.330517 -0.000001 -0.000000 -0.000000 4.122862 -14.369922 2.345100 -41.210302 1.016682 -32.643171 0.000012 -112.948618 0.000016 -16.922888 -21.426679 -1.401884 8.190381 26.718068 -11.526447 11.595259 14.435159 40.279060 29.278514 -36.129980 64.641334 0.000001 0.000000 -0.000001 0.223867 3.719704 -13.395913 0.179730 1.441438 -14.214345 0.180189 1.443251 -14.232596 -0.000003 -0.000002 -0.000001 0.223776 3.719363 -13.392451 0.179309 1.439716 -14.196938 0.233662 1.639670 -16.220729 0.000000 -0.000000 -0.000000 0.274184 3.915574 -15.372527 0.155366 1.341578 -13.210652 0.205928 1.541158 -15.221036 0.000001 -0.000001 -0.000001 0.331308 4.109668 -17.350571 0.179916 1.442159 -14.221521 0.180615 1.444905 -14.249236 -0.000000 -0.000001 0.000000 4.567021 18.551822 6.600343 -45.985020 5.884712 31.684500 0.000001 108.616653 0.000024 -15.317683 6.310269 6.795502 6.282334 -24.861303 11.879984 11.949892 -16.807533 -40.834279 31.746716 37.910682 -64.296355 0.000001 0.000003 -0.000003 0.194068 -3.439400 14.364680 0.178981 -1.279996 15.919224 0.179506 -1.281839 15.942777 0.000001 0.000002 -0.000002 0.193981 -3.439114 14.360824 0.178691 -1.278946 15.906039 0.226349 -1.435702 17.918629 -0.000004 0.000002 0.000002 0.236480 -3.593605 16.330171 0.157588 -1.202459 14.931656 0.202302 -1.359098 16.932109 0.000001 0.000000 -0.000001 0.284989 -3.748780 18.328825 0.178949 -1.279918 15.918229 0.179590 -1.282114 15.946357 -0.000003 0.000000 -0.000000 -147.937171 -0.635093 8.791061 103.571773 -9.774677 -1.313805 50.067172 -0.709979 4.586265 -4.139666 -0.000007 0.000006 0.000001 -0.000002 -0.000000 -148.293830 -3.558982 -10.577075 107.845736 -3.059433 2.555238 44.440165 -4.568180 -11.435880 -4.077570 -0.000003 -0.000004 0.000000 -0.000001 -0.000001 
-0.046946 0.510937 0.577473 -2.297453 -0.048847 -3.386884 8.843516 0.497133 -0.758244 10.762485 1.501693 -0.568077 10.745609 1.624346 -0.681440 2.628645 -0.465595 3.507797 -22.947680 2.107715 -1.421715 -0.000000 0.000000 0.000000 4.229649 -13.940875 2.510783 -41.133599 -0.173039 -32.786650 0.000016 -111.916925 0.000004 -16.332789 -21.472989 -1.202909 8.190380 26.718064 -11.526449 11.595271 14.435140 40.279056 29.278487 -36.129942 64.641334 -0.000004 -0.000001 -0.000004 0.220697 3.706356 -13.261763 0.172955 1.414441 -13.942676 0.174688 1.421345 -14.011971 -0.000002 -0.000002 -0.000002 0.220375 3.705054 -13.248602 0.171346 1.407875 -13.876524 0.227165 1.617187 -15.991945 -0.000003 0.000000 0.000000 0.269329 3.897817 -15.192542 0.148532 1.312140 -12.915677 0.199505 1.517402 -14.980722 -0.000003 0.000001 0.000001 0.324526 4.087830 -17.126942 0.173627 1.417162 -13.969924 0.176267 1.427625 -14.075188 0.000001 0.000000 -0.000000 4.745770 18.042209 6.728920 -46.250442 6.748038 32.033058 0.000051 107.926906 -0.000043 -15.087773 6.530810 6.935078 6.282312 -24.861277 11.879980 11.949892 -16.807518 -40.834279 31.746699 37.910675 -64.296314 -0.000000 -0.000001 -0.000006 0.194094 -3.439526 14.366424 0.178069 -1.276792 15.878602 0.180065 -1.283806 15.968082 -0.000001 0.000001 -0.000002 0.193806 -3.438380 14.351809 0.176952 -1.272865 15.828458 0.225675 -1.433621 17.891658 0.000001 -0.000001 -0.000003 0.234541 -3.587049 16.246389 0.157291 -1.201386 14.917838 0.202379 -1.359351 16.935323 -0.000003 0.000002 -0.000000 0.282986 -3.742754 18.251095 0.177986 -1.276522 15.874789 0.180380 -1.284869 15.981661 0.000002 0.000003 -0.000001 -147.498058 -0.479952 8.958544 103.601914 -9.843900 -1.348054 50.114522 -0.710231 4.747085 -4.104761 -0.000001 0.000005 0.000000 -0.000002 -0.000000 -147.874770 -3.348701 -10.347428 107.918314 -3.198223 2.510069 44.523698 -4.499362 -11.248539 -4.084983 0.000001 0.000006 0.000000 -0.000001 0.000000 
-0.048310 0.509608 0.572819 -3.316452 0.028589 -3.347019 8.744354 0.504920 -0.744365 10.648196 1.510446 -0.565234 10.632087 1.625295 -0.675417 2.359169 -0.487718 3.470717 -22.879969 1.917078 -1.279967 -0.000000 0.000000 -0.000000 4.337840 -13.411596 2.610471 -41.081638 -1.630557 -32.838002 0.000002 -110.781543 0.000004 -15.566841 -21.659216 -0.941298 8.190386 26.718068 -11.526447 11.595269 14.435156 40.279077 29.278487 -36.129983 64.641320 0.000001 0.000000 -0.000003 0.217481 3.692694 -13.124693 0.164472 1.379799 -13.594314 0.168039 1.394504 -13.742090 0.000002 0.000002 0.000001 0.216820 3.689897 -13.096626 0.161104 1.365752 -13.453342 0.219269 1.589378 -15.709505 -0.000003 -0.000001 0.000001 0.263782 3.877320 -14.985121 0.139868 1.273788 -12.531587 0.191648 1.487672 -14.680564 0.000001 0.000001 -0.000000 0.316299 4.060987 -16.852546 0.165868 1.385583 -13.652401 0.171343 1.407907 -13.876840 0.000004 -0.000002 -0.000001 4.913134 17.582013 6.933753 -46.289862 7.749453 32.328214 0.000085 107.029146 -0.000054 -14.835497 6.913880 6.727684 6.282317 -24.861281 11.879970 11.949894 -16.807550 -40.834324 31.746702 37.910705 -64.296341 -0.000004 0.000004 -0.000001 0.193472 -3.437078 14.335140 0.175931 -1.269253 15.782289 0.180170 -1.284193 15.972976 -0.000000 -0.000001 -0.000001 0.192844 -3.434612 14.304029 0.173571 -1.260883 15.675371 0.223795 -1.427795 17.816308 0.000003 -0.000002 -0.000001 0.230865 -3.574351 16.083774 0.156135 -1.197039 14.862695 0.201696 -1.357092 16.906313 -0.000001 0.000001 0.000000 0.279102 -3.730917 18.097744 0.175743 -1.268634 15.774180 0.180816 -1.286461 16.001953 0.000000 -0.000001 0.000001 -146.481576 -0.417433 9.106917 103.533510 -9.913846 -1.354031 50.151357 -0.737358 4.812315 -4.050886 0.000005 0.000004 0.000001 -0.000003 -0.000000 -146.860760 -3.183393 -10.015281 107.848858 -3.325703 2.476087 44.648110 -4.419176 -11.021386 -4.070000 -0.000002 -0.000002 0.000000 -0.000001 -0.000000 
-0.049495 0.508777 0.564623 -4.825190 0.089074 -3.300194 8.623497 0.516978 -0.715536 10.522723 1.518432 -0.547894 10.507818 1.623275 -0.653424 2.284138 -0.475031 3.376878 -22.722482 1.814777 -1.098038 -0.000000 -0.000000 0.000000 4.445825 -12.976567 2.573612 -40.978792 -3.237089 -32.672189 -0.000034 -109.572722 -0.000038 -15.120232 -22.094374 -0.648555 8.190392 26.718059 -11.526470 11.595253 14.435159 40.279084 29.278511 -36.129973 64.641341 -0.000002 -0.000003 -0.000000 0.214320 3.679066 -12.987913 0.154811 1.339239 -13.187280 0.160673 1.363960 -13.435383 -0.000002 -0.000001 0.000001 0.213225 3.674363 -12.940771 0.149335 1.315633 -12.950602 0.210401 1.557514 -15.386768 -0.000000 0.000001 -0.000000 0.257833 3.854901 -14.758357 0.129978 1.228469 -12.078816 0.182783 1.453435 -14.335175 0.000001 -0.000000 -0.000001 0.307099 4.030393 -16.540124 0.157096 1.348963 -13.284772 0.166099 1.386512 -13.661614 0.000000 -0.000002 0.000000 5.079088 17.105705 7.116903 -46.080913 8.901922 32.583971 0.000042 105.851847 -0.000025 -14.412285 7.308161 6.576778 6.282323 -24.861276 11.879988 11.949894 -16.807533 -40.834296 31.746692 37.910658 -64.296334 -0.000001 0.000000 -0.000005 0.192271 -3.432371 14.275492 0.172769 -1.258056 15.639412 0.179892 -1.283145 15.959562 0.000000 0.000001 -0.000000 0.191212 -3.428258 14.223228 0.168858 -1.243971 15.459894 0.220919 -1.418801 17.700249 -0.000002 -0.000002 -0.000001 0.225758 -3.556542 15.856100 0.154263 -1.189942 14.772509 0.200347 -1.352654 16.849539 0.000001 0.000002 0.000000 0.273664 -3.714230 17.881910 0.172475 -1.257005 15.625798 0.180981 -1.286946 16.008223 -0.000001 -0.000000 0.000000 -144.903665 -0.406936 9.142709 103.398026 -9.983845 -1.318017 50.144520 -0.777382 4.711806 -3.965583 0.000005 0.000005 0.000000 -0.000003 0.000000 -145.285746 -3.045774 -9.650251 107.670248 -3.423780 2.455804 44.803582 -4.352736 -10.820021 -4.032384 0.000010 0.000002 0.000000 -0.000001 -0.000000 
